<?xml version="1.0" encoding="utf-8"?>
<!-- Generator: Adobe Illustrator 16.0.0, SVG Export Plug-In . SVG Version: 6.00 Build 0)  -->
<!DOCTYPE svg PUBLIC "-//W3C//DTD SVG 1.1//EN" "http://www.w3.org/Graphics/SVG/1.1/DTD/svg11.dtd">
<svg version="1.1" id="Layer_1" xmlns="http://www.w3.org/2000/svg" xmlns:xlink="http://www.w3.org/1999/xlink" x="0px" y="0px"
	 width="25rem" viewBox="0 0 960 320" enable-background="new 0 0 960 320" xml:space="preserve">
<g>
	<g>
		<path fill="#010101" d="M779.201,10.124c2.141,1.263,4.288,2.641,6.843,2.786c2.318,0.091,4.724,0.207,6.987-0.203
			c4.23-0.762,8.515-1.233,12.713-0.762c4.347,0.497,8.692,1.379,12.716,3.258c0.526,0.265,1.057,0.762,1.32,1.292
			c2.381,4.727,5.258,9.132,8.636,13.184c1.586,1.909,3.846,2.91,6.164,3.701c4.23,1.408,8.369,3.113,12.07,5.667
			c1.999,1.35,3.995,2.641,5.874,4.081c3.933,2.964,7.869,5.961,11.748,9.016c1.524,1.205,2.931,2.583,4.343,3.904
			c2.467,2.41,5.111,4.731,7.401,7.285c3.522,3.875,6.81,7.898,10.101,11.951c2.288,2.818,4.346,5.754,6.462,8.693
			c1.522,2.082,2.699,4.404,4.346,6.458c1.465,1.879,3.056,3.846,5.638,4.23c0.938,0.116,1.88,0.058,2.816,0.116
			c3.758,0.116,6.929,1.585,9.048,4.583c3.759,5.224,7.277,10.63,10.805,16.032c3.465,5.373,6.93,10.775,10.217,16.297
			c3.526,6.048,6.93,12.215,10.34,18.383c1.408,2.642,2.699,5.344,3.817,8.131c0.818,2.147,0.939,4.496,0.587,6.814
			c-0.178,0.911-0.178,1.879-0.178,2.79c-0.119,2.202-1.586,3.406-3.171,4.553c-0.587,0.439-1.291,0.91-1.999,1.205
			c-1.466,0.587-1.996,1.701-2.112,3.112c-0.293,6.342-3.406,11.422-7.165,16.239c-3.29,4.169-7.459,7.281-11.744,10.246
			c-3.171,2.202-6.581,4.172-10.042,6.371c0.762,1.001,1.701,2.144,2.583,3.29c3.461,4.288,7.104,8.516,10.51,12.919
			c1.644,2.059,3.175,4.289,4.467,6.64c1.407,2.642,3.639,4.05,6.283,5.108c4.169,1.586,8.279,3.113,12.452,4.699
			c0,0.588,0,1.232,0,1.879c-2.062,0.236-4.057,0-5.993-0.587c-4.169-1.292-8.396-1.527-12.626-0.588
			c-2.703,0.528-4.935,2.23-7.108,3.994c-7.106,5.754-14.624,10.925-22.315,15.854c-4.11,2.703-8.047,5.58-12.037,8.398
			c-0.824,0.588-1.531,1.354-2.294,2c-3.229,2.992-6.458,5.928-9.69,8.866c-1.644,1.586-3.639,1.292-5.638,1.292
			c-0.94,0-1.817-0.058-2.703-0.116c-0.349-0.058-0.704-0.119-1.114-0.177c0.704-1.47,1.938-1.822,3.172-1.938
			c2.409-0.235,4.288-1.527,5.989-3.054c4.173-3.524,6.872-8.222,9.574-12.805c2.348-3.933,4.583-7.927,6.871-11.863
			c0.646-1.056,1.586-1.523,2.82-1.821c0.409,3.113-0.882,6.462,1.995,9.106c1.585-0.939,3.229-1.879,4.876-2.882
			c4.695-2.992,9.28-6.163,13.214-10.216c1.821-1.938,3.406-4.052,4.288-6.52c0.232-0.646,0.348-1.292,0.468-2.173
			c-2.584-0.589-5.17-1.351-7.753-1.586c-1.35-0.116-2.758,0.704-4.111,1.056c-0.881,0.236-1.76,0.472-2.641,0.588
			c-1.233,0.235-1.999-0.409-2.468-1.466c-0.528-1.117-0.997-2.234-1.469-3.349c-0.588-1.411-1.176-1.644-2.468-0.703
			c-2.23,1.584-4.462,3.286-6.692,4.93c-3.172,2.467-6.462,4.818-9.518,7.401c-2.467,2.115-4.578,4.698-6.341,7.401
			c-1.177,1.76-2.936,1.644-4.227,0c-1.118-1.412-1.47-3.056-1.822-4.699c-0.468-2.23-0.882-4.523-1.353-6.813
			c0-0.119-0.116-0.293-0.233-0.467c-3.526,2.111-7.046,4.169-10.514,6.283c-1.056,0.646-2.169,1.292-3.113,2.054
			c-1.522,1.176-2.467,2.703-2.815,4.582c-0.239,1.76-0.707,3.465-0.942,5.166c-0.058,0.588,0.119,1.292,0.471,1.644
			c1.061,1.061,2.231,2.058,3.408,3.056c0.352,0.293,0.823,0.53,1.291,0.823c-0.12,0.116-0.178,0.235-0.235,0.352
			c0.174-0.235,0.354-0.529,0.587-0.939c0.115,0.353,0.115,0.469,0.115,0.526c-0.174,1.999-1.522,3.175-2.935,4.23
			c-3.051,2.293-4.931,5.405-6.403,8.866c-1.702,4.173-3.581,8.283-5.46,12.394c-0.116,0.411-0.469,0.763-0.939,1.177
			c0-1.234-0.174-2.583,0.028-3.817c0.618-3.7,1.146-7.401,2.207-10.985c0.761-2.758,2.227-5.341,3.401-8.044
			c0.356-0.998,0.704-1.999,1.118-3.055c-1.118-0.469-2.058-0.939-3.112-1.292c-1.06-0.468-1.291-1.233-1.002-2.23
			c1.002-3.644,2.057-7.285,3.112-10.866c0.414-1.527,0.944-2.994,1.292-4.521c0.356-1.354,1.117-2.409,2.178-3.054
			c3.345-1.938,5.46-4.876,7.575-7.986c2.467-3.879,4.636-7.872,6.167-12.099c0.527-1.528,0.994-3.056,0.878-4.699
			c-0.231-3.199-0.704-6.462-0.588-9.691c0.237-4.523,0.646-9.044,1.412-13.507c1.171-7.488,2.818-14.89,4.11-22.377
			c0.588-3.229,0.82-6.55,1.061-9.865c0.231-3.204,0.348-6.405,0.348-9.634c0.119-8.341,0.239-16.649,0.178-24.99
			c0-1.263-0.469-2.525-0.882-3.729c-0.53-1.465-1.234-2.877-1.879-4.318c0.116-0.145,0.235-0.29,0.354-0.438
			c2.874,0.206,5.871,0.119,8.689,0.645c2.703,0.472,4.227,2.587,5.055,5.113c1.229,3.374,1.465,6.81,1.052,10.333
			c-0.526,4.259-0.936,8.519-1.64,12.745c-0.708,4.64-1.531,9.281-2.467,13.893c-2.116,10.362-4.404,20.73-6.523,31.125
			c-0.585,2.994-0.879,6.048-1.114,9.103c-0.178,2.409-0.236,4.815-0.178,7.253c0.178,3.552,0.765,7.05,2.409,10.336
			c1.88,3.527,4.582,4.172,7.754,2.525c2.76-1.465,5.228-3.465,7.868-5.225c2.468-1.589,4.992-3.203,7.518-4.64
			c6.462-3.613,13.156-6.901,19.497-10.722c5.17-3.08,9.396-7.281,12.568-12.419c1.646-2.645,2.938-5.373,3.525-8.427
			c0.059-0.444,0.117-0.854,0.117-1.292c0.355-5.581-0.233-11.102-1.644-16.505c-0.12-0.468-0.12-0.968-0.12-1.47
			c1.292-0.116,1.82,0.472,2.351,1.441c0.939,1.76,2.116,3.349,3.287,5.228c0.943-1.001,1.764-1.851,2.468-2.761
			c0.119-0.207,0-0.707-0.116-1.027c-1.292-3.497-2.642-6.929-3.875-10.427c-1.821-4.785-3.469-9.628-5.286-14.418
			c-1.233-3.083-2.645-6.105-4.11-9.073c-2.525-5.196-5.17-10.336-7.812-15.474c-2.289-4.404-4.582-8.78-7.05-13.068
			c-1.407-2.438-3.465-4.376-6.105-5.493c-0.998-0.411-2.057-0.646-3.112-0.733c-5.403-0.411-10.572,0.91-15.685,2.202
			c-2.286,0.587-4.638,1.117-6.988,1.614c-0.704,0.149-1.407,0.029-2.111,0.029c-0.116-1.582-0.116-3.143-0.355-4.637
			c-0.349-2.761-0.819-5.551-1.466-8.253c-0.646-2.463-1.408-4.931-2.408-7.282c-0.94-2.467-2.111-4.876-3.346-7.223
			c-0.707-1.441-1.354-2.819-1.47-4.524c1.292,0.177,2.231,0.708,2.819,1.676c1.764,2.731,3.402,5.432,4.991,8.221
			c1.997,3.556,3.817,7.224,5.755,10.808c0.414,0.704,1.061,1.234,1.586,1.847c0.119-0.058,0.235-0.116,0.294-0.146
			c-0.175-1.175-0.353-2.38-0.53-3.551c-0.936-5.551-3.522-10.366-7.045-14.684c-2.939-3.671-6.11-7.136-9.166-10.629
			c-2.462-2.762-4.93-5.551-7.575-8.077c-2.404-2.231-5.05-4.14-7.691-6.139c-2.466-1.967-5.108-3.817-7.634-5.783
			c-3.349-2.554-7.14-4.23-11.159-5.315c-10.071-2.642-20.113-5.286-30.186-7.84c-3.319-0.849-6.668-1.499-10.013-2.115
			c-1.089-0.203-1.851-0.646-2.207-1.615c-0.732-2.111-2.023-3.788-3.758-5.166c-0.497-0.355-0.732-1.001-1.114-1.499
			c0.059-0.12,0.12-0.207,0.178-0.323c1.144,0,2.29-0.058,3.403,0.03c2.235,0.145,4.523,0.293,6.255,1.937
			c0.646,0.617,1.233,1.32,1.647,2.115c0.819,1.527,1.759,2.554,3.671,2.906c4.021,0.704,7.985,1.734,12.01,2.646
			c0.261,0.058,0.559,0.058,0.997,0.116c0-2.645,0.468-5.344-1.263-7.43c-1.056-1.321-2.702-2.289-4.288-3.022
			c-4.053-1.879-8.428-2.587-12.804-3.232c-3.026-0.439-5.899,0.207-8.78,0.853c-4.375,0.968-8.692,0.911-13.039-0.116
			c-1.582-0.384-3.229-0.326-4.724,0.559c-1.439,0.878-2.968,1.644-4.404,2.554c-0.795,0.497-1.473,1.263-2.119,2.083
			c1.176-0.232,2.38-0.468,3.556-0.674c3.788-0.646,6.987,0.264,9.426,3.377c1.966,2.554,4.579,3.994,7.84,4.285
			c0.998,0.09,1.971,0.297,3.32,0.5c-0.472,0.646-0.733,1.263-1.204,1.586c-0.792,0.559-1.705,0.968-2.613,1.324
			c-1.676,0.704-3.41,1.321-5.111,2.025c-1.44,0.587-2.849,1.088-4.434,1.233c-1.35,0.145-2.703,0.732-3.907,1.379
			c-3.229,1.734-6.459,3.498-9.571,5.435c-3.613,2.231-7.104,4.666-10.66,6.988c-3.932,2.554-7.988,4.935-11.806,7.604
			c-3.642,2.525-7.133,5.287-10.543,8.077c-2.347,1.937-4.462,4.109-6.631,6.225c-1.089,1.056-2,2.26-3.143,3.494
			c0.407-0.029,0.588-0.058,0.878-0.058c-0.82,1.055-1.614,2.056-2.409,3.083c0.058,0.145,0.12,0.265,0.179,0.409
			c1.791-0.293,3.551-0.646,5.344-0.881c1.437-0.174,2.909-0.235,4.376-0.293c1.468-0.058,2.553,0.881,3.584,1.763
			c2.348,2.053,3.875,4.64,4.814,7.575c0.087,0.352,0.235,0.675,0.468,0.969c-0.028-1.789,0.442-3.582-0.497-5.315
			c-0.853-1.615-1.73-3.229-3.436-4.053c-1.677-0.762-3.406-1.408-5.229-2.173c1.114-1.407,2.646-1.614,4.11-1.644
			c2.613-0.058,5.228,0.121,7.725-0.645c0.853-0.265,1.644-0.734,2.318-1.292c1.059-0.823,1.937-1.821,2.968-2.732
			c0.969-0.849,2.082-1.026,3.316-0.587c0.675,0.235,1.353,0.529,2.057,0.736c1.354,0.381,2.376-0.588,3.553-0.969
			c0.823-0.264,1.617-0.616,2.408-1.001c0.91-0.409,1.498-0.29,2.173,0.559c1.234,1.615,2.704,3.083,3.995,4.669
			c1.204,1.499,1.908,3.143,1.996,5.141c0.293,5.957-1.118,11.537-3.085,17.088c-0.878,2.467-1.672,4.992-2.26,7.547
			c-0.853,3.846,1.498,6.784,5.519,7.049c2.028,0.146,4.172-0.649,6.226-1.175c2.264-0.617,4.434-1.557,6.697-2.116
			c1.437-0.352,2.968-0.293,4.462-0.409c0.059,0.086,0.117,0.207,0.179,0.293c-0.795,1.085-1.673,2.112-2.381,3.229
			c-0.91,1.44-1.701,2.939-2.495,4.434c-0.381,0.733-0.381,1.44,0.207,2.173c2.79,3.614,5.551,7.252,8.308,10.896
			c0.646,0.881,1.204,0.674,1.938,0.116c3.352-2.555,6.727-5.108,10.104-7.576c1.644-1.205,3.32-2.348,5.519-2.144
			c0.149,0.033,0.297,0.033,0.473,0.091c-0.414,1.995-1.467,3.639-2.584,5.225c-2.264,3.112-3.585,6.578-4.052,10.336
			c-0.207,1.821-0.295,3.729,0.38,5.758c0.381-0.356,0.646-0.559,0.911-0.795c3.08-3.17,6.163-6.313,9.276-9.455
			c1.321-1.382,2.645-2.761,4.057-4.053c0.348-0.322,0.966-0.442,1.494-0.471c1.177-0.058,2.409-0.116,3.586,0.062
			c2.641,0.352,4.607,1.73,6.105,3.995c2.086,3.109,4.227,6.194,6.52,9.128c2.23,2.88,4.579,5.7,7.046,8.341
			c2.264,2.409,3.7,5.199,4.645,8.312c1.232,4.083,2.434,8.135,3.58,12.245c0.352,1.234,0.468,2.525,0.704,3.875
			c0.352,0,0.824,0,1.291,0c0.708-3.287,0-6.462-0.525-9.662c-0.414-2.261-0.355-4.608-0.53-6.959
			c0.232-0.058,0.352-0.116,0.473-0.174c0.583,0.617,1.171,1.172,1.639,1.821c1.763,2.435,2.939,5.224,3.879,8.073
			c0.588,1.615,0.939,3.29,1.411,4.992c0.994-0.646,1.523-1.528,1.64-2.849c0.239-4.786-0.819-9.397-1.523-14.066
			c-0.588-3.965-1.879-7.725-3.406-11.421c-0.646-1.498-0.939-3.145-1.292-4.757c1.411,0.439,2.289,1.292,2.819,2.464
			c1.523,3.556,3.054,7.078,4.462,10.664c1.06,2.641,1.995,5.369,3.056,8.015c1.879,4.785,1.585,9.604,0.587,14.539
			c-0.882,4.49-2.703,8.631-4.114,12.947c-0.058,0.058-0.116,0.116-0.116,0.207c-0.232,0.762-0.352,2.024-0.82,2.198
			c-1.001,0.356-2.177,0.12-3.232,0.12c-1.229,0-2.404,0-3.58,0c-0.294,1.408-0.472,2.612-0.705,3.817
			c-0.119,0.674-0.471,0.881-1.175,0.997c-2.968,0.501-5.965,0.969-8.896,1.705c-4.23,1.056-7.198,3.788-9.311,7.518
			c-1.705,3.055-3.496,6.077-5.141,9.161c-0.853,1.556-2.144,2.024-3.759,2.058c-1.817,0.028-1.847,0.086-2.317,1.817
			c-0.323,1.263-0.617,2.525-1.089,3.729c-1.056,2.849-3.403,4.26-6.048,5.373c-2.29,0.882-4.611,1.881-6.901,2.762
			c-0.823,0.352-1.113,0.766-0.881,1.764c0.5,2.053,0.79,4.227,1.176,6.341c0.087,0.353,0.174,0.766,0.322,1.412
			c2.319-1.06,4.553-1.999,6.781-2.938c1.263-0.53,2.467-1.234,3.788-1.644c0.797-0.236,1.911-0.469,2.586-0.12
			c3.522,1.705,6.312,0.179,8.958-1.818c3.461-2.645,5.958-6.048,8.105-9.806c1.788-3.113,3.58-6.255,4.55-9.782
			c0.265-0.849,0.412-1.729,0.646-2.611c0.059-0.235,0.145-0.53,0.322-0.616c0.881-0.56,2.878,0.5,2.79,1.526
			c-0.235,2.261-0.616,4.491-0.849,6.724c-0.21,2.114-0.326,4.229-0.472,6.639c1.523-0.472,2.786-0.707,3.961-1.175
			c4.496-2.058,8.371-5.05,11.425-8.9c1.938-2.318,3.76-4.756,5.403-7.311c2.702-4.554,4.462-9.513,5.522-14.712
			c0.409-1.97,1.056-3.907,1.522-5.844c0.24-0.763,0.708-0.999,1.531-0.734c0,1.437,0.232,2.997,0,4.464
			c-0.529,3.642-1.059,7.313-1.938,10.895c-1.705,6.871-3.699,13.685-7.459,19.762c-1.175,1.793-2.583,3.437-4.114,5.08
			c-2.467,2.645-4.935,5.405-7.634,7.811c-2.11,1.821-4.578,3.349-6.987,4.877c-3.2,1.995-6.61,3.696-9.222,6.52
			c-0.937,0.997-2.232,1.233-3.495,1.523c-5.575,1.233-11.155,2.409-16.765,3.643c-0.766,0.178-1.561,0.178-2.322,0.294
			c-0.087-0.059-0.174-0.116-0.294-0.235c1.027-1.938,2.057-3.876,3.084-5.755c-0.087-0.116-0.178-0.235-0.265-0.235
			c-1.673,1.644-3.288,3.291-5.021,4.935c-1.615,1.468-3.345,2.818-5.05,4.167c-0.295,0.237-0.939,0.237-1.292,0.117
			c-1.117-0.41-2.23-0.878-3.258-1.466c-1.938-1.059-3.907-1.408-6.023-0.704c-2.289,0.704-4.636,0.878-7.045,0.588
			c-0.704-0.119-1.647,0.352-2.202,0.82c-1.941,1.647-3.701,3.465-5.58,5.17c-1.44,1.291-3.172,1.644-5.084,1.76
			c-5.456,0.293-10.658-1.177-15.854-2.468c-3.229-0.819-6.457-1.644-9.69-2.467c-3.199-0.82-5.932-2.525-8.282-4.757
			c-2.583-2.404-5.138-4.872-6.987-7.927c-0.497-0.882-0.676-1.879-0.998-2.877c0.12-0.058,0.264-0.179,0.409-0.294
			c1.909,1.176,3.788,2.289,5.697,3.406c5.758,3.406,11.544,6.694,17.326,10.101c1.706,0.939,3.527,1.292,5.58,0.939
			c-0.322-1.117-1.175-1.644-2.053-1.995c-4.673-1.938-8.929-4.582-13.155-7.285c-4.847-3.051-9.636-6.106-14.243-9.513
			c-4.877-3.643-8.694-8.338-11.632-13.714c-1.201-2.232-2.613-4.404-5.196-5.581c0.939,1.851,1.879,3.73,2.849,5.552
			c2.114,4.052,4.935,7.634,8.075,10.925c1.614,1.701,1.586,3.465,0.854,5.46c-2.497,6.755-4.731,13.626-7.489,20.262
			c-2.761,6.694-5.902,13.156-9.751,19.266c-1.057,1.644-2.377,3.171-3.463,4.814c-0.354,0.473-0.587,1.408-0.325,1.879
			c0.853,1.764,1.908,3.349,2.91,4.935c1.522,2.525,2.968,5.051,3.373,8.048c0.207,1.465,0.239,2.876,0.299,4.404
			c0.144,3.052,0.231,6.105,0.409,9.161c0.116,1.879,0.381,3.758,0.583,5.638c-1.522,0-2.963,0.059-4.433,0
			c-0.203,0-0.526-0.294-0.646-0.53c-2.228-4.757-4.464-9.574-6.666-14.327c-1.556-3.349-2.761-6.755-3.493-10.398
			c-0.231-1.232-0.442-2.466-0.762-3.642c-0.588-1.995,0.381-3.523,1.263-5.167c4.578-8.163,9.28-16.268,12.125-25.251
			c1.705-5.228,3.2-10.515,4.582-15.858c0.853-3.291,0.766-6.694,0.41-10.104c-0.231-2.11-0.203-4.343-0.676-6.458
			c-0.558-2.409-1.378-4.818-2.35-7.137c-0.966-2.26-3.023-3.609-5.254-4.433c-1.851-0.646-3.816-1.114-5.725-1.557
			c-2.969-0.704-5.522-1.967-7.314-4.582c-0.939-1.379-0.85-2.906-0.907-4.372c-0.091-1.999,0.058-3.995,0.146-5.965
			c0.057-0.878-0.146-1.35-1.146-1.407c-2.174-0.088-3.494-1.441-4.579-3.171c-2.264-3.465-4.582-6.901-6.843-10.369
			c-1.995-3.08-1.88-6.343-0.703-9.717c1.113-3.142,2.555-6.109,4.346-8.929c2.613-4.139,5.079-8.369,7.779-12.48
			c2.968-4.462,6.341-8.689,9.192-13.214c2.758-4.404,5.167-9.073,7.692-13.685c1.408-2.583,0.969-5.345,0.56-8.102
			c-0.589-3.936-1.002-7.931-1.707-11.834c-0.495-2.852,0.414-5.287,1.677-7.637c2.232-4.082,4.55-8.135,6.872-12.158
			c0.733-1.292,0.907-2.525,0.115-3.788c-1.937-2.935-1.465-5.99-0.231-8.983c1.466-3.584,3.759-6.639,6.371-9.487
			c1.879-2.024,3.61-4.227,5.608-6.135c3.375-3.2,6.871-6.284,10.424-9.281c4.376-3.701,8.867-7.252,13.243-10.953
			c3.231-2.761,6.345-5.667,9.516-8.486c2.965-2.67,5.812-5.551,9.306-7.546c1.702-0.968,3.522-1.734,5.287-2.583
			C775.145,10.124,777.173,10.124,779.201,10.124z M825.858,177.149c-2.054-0.322-3.991-0.497-5.871-0.881
			c-4.403-0.939-8.191-2.79-10.365-7.018c-2.26-4.403-2.849-8.808-0.062-13.243c0.53-0.823,0.973-1.734,1.44-2.616
			c-0.059-0.086-0.116-0.207-0.178-0.293c-0.646,0.149-1.291,0.265-1.938,0.471c-0.381,0.146-0.732,0.469-1.114,0.676
			c-2.496,1.498-4.756,3.229-5.96,6.048c-1.06,2.41-1.647,4.847-1.321,7.518c0.29,2.557,1.027,4.904,2.496,6.933
			c3.171,4.343,7.663,6.487,12.829,7.162c3.203,0.443,6.139-0.675,8.809-2.377C825.419,179.001,826.035,178.177,825.858,177.149z
			 M776.44,27.857c-1.234,0-2.438,0.058-3.61-0.029c-0.442-0.029-1.001-0.323-1.296-0.675c-0.674-0.819-1.201-1.792-1.85-2.641
			c-1.262-1.556-2.762-2.467-4.902-1.908c-0.765,0.203-1.733,0.497-2.409,0.232c-1.32-0.468-2.086,0.087-2.88,0.91
			c-0.203,0.207-0.406,0.41-0.616,0.588c-3.934,3.494-7.866,7.021-11.832,10.452c-3.021,2.616-6.02,5.257-9.189,7.695
			c-5.406,4.169-10.838,8.283-15.154,13.594c-2.612,3.204-4.727,6.697-5.547,10.866c-0.24,1.205,0.028,1.851,1.113,2.231
			c0.119-0.087,0.207-0.146,0.265-0.232c2.38-3.407,4.637-6.873,7.134-10.163c2.734-3.581,5.551-7.107,8.518-10.481
			c2.38-2.646,4.963-5.141,7.576-7.546c1.791-1.647,3.758-3.113,5.725-4.583c4.641-3.465,9.31-6.929,14.037-10.278
			c1.382-0.998,2.849-1.966,4.785-1.35c2.116,0.646,3.439,2.203,4.761,3.758c0.964,1.147,1.672,2.438,3.608,2.141
			C776.469,30.151,776.676,30.063,776.44,27.857z M735.301,133.776c-0.707,0.207-1.411,0.297-1.998,0.559
			c-2.965,1.321-4.873,3.556-5.932,6.61c-0.323,0.908-0.116,1.554,0.471,2.17c0.997,1.059,2.758,1.589,3.759,1.117
			c0.82-0.41,1.233-1.967,0.907-3.556c-0.291-1.437,0.178-2.141,1.646-2.405c0.262-0.058,0.502-0.087,0.733-0.149
			c1.764-0.381,2.583,0.062,3.026,1.793c0.231,0.939,0.086,1.965,0.262,2.938c0.384,2.024-0.35,3.61-1.79,4.901
			c-0.939,0.881-2.058,1.557-3.113,2.29c-0.558,0.356-0.794,0.737-0.467,1.412c0.29,0.616,0.588,1.085,1.378,0.823
			c0.911-0.293,1.821-0.674,2.791-0.823c1.759-0.323,2.789-0.381,3.108,1.821c0.033,0.265,0.21,0.497,0.384,0.998
			c0.443-0.352,0.851-0.588,1.089-0.91c0.646-0.853,1.234-1.702,1.789-2.583c1.353-2.058,2.993-3.671,5.432-4.347
			c0.794-0.235,1.501-0.703,2.234-1.084c-0.029-0.121-0.087-0.265-0.12-0.384c-3.58,0-7.164,0-10.836,0
			c0-1.35-0.146-2.467,0.028-3.582c0.298-2.057-0.675-3.291-2.347-4.169c-0.353-0.177-0.704-0.354-1.057-0.529
			c-0.882-0.381-1.705-0.795-1.32-2.024C735.446,134.425,735.33,134.161,735.301,133.776z M751.214,95.957
			c0.088,0.028,0.146,0.086,0.235,0.116c0.266-0.323,0.618-0.616,0.823-0.969c0.704-1.321,1.322-2.674,1.997-3.965
			c2.053-4.02,4.433-7.869,4.817-12.54c0.175-1.995,0.145-3.961-0.588-5.841c-0.766-1.851-1.439-2.056-3.113-1.059
			c-0.528,0.326-1.03,0.645-1.498,1.059c-0.236,0.174-0.5,0.469-0.529,0.762c-0.41,2.583-0.853,5.17-1.172,7.783
			c-0.385,3.025-0.708,6.048-0.943,9.103C751.098,92.255,751.214,94.106,751.214,95.957z M732.275,164.023
			c-1.879,1.44-2.997,3.172-3.875,5.021c-0.646,1.354-1.324,2.762-1.56,4.199c-0.262,1.646-0.059,3.38-0.059,5.054
			c0,3.171,0.824,6.222,1.821,9.16c2.145,6.284,5.609,11.864,9.396,17.208c1.32,1.851,2.939,3.494,4.405,5.229
			c0.087-0.058,0.174-0.12,0.266-0.179c-0.092-0.177-0.149-0.352-0.237-0.525c-1.908-3.439-3.846-6.843-5.696-10.341
			c-2.409-4.578-4.2-9.454-5.812-14.389c-1.263-3.932-1.41-7.927-1.029-11.979c0.087-0.882,0.206-1.792,0.471-2.641
			C730.925,167.96,731.571,166.109,732.275,164.023z M717.915,83.24c-0.058-0.088-0.145-0.207-0.202-0.323
			c-0.68,0.323-1.383,0.588-2,0.969c-2.173,1.44-3.878,3.377-5.401,5.521c-1.938,2.732-1.821,5.816-1.205,8.752
			c0.763,3.406,2.935,6.225,5.08,8.957c0.145,0.204,0.559,0.29,0.849,0.29c2.027,0.03,3.468-1.142,5.054-2.376
			c-1.233-0.381-2.376-0.736-3.465-1.117c-1.938-0.646-3.526-1.731-4.317-3.668c-0.529-1.295-0.94-2.645-1.233-4.023
			c-0.618-2.79-0.295-5.435,1.879-7.608c1.32-1.35,2.642-2.757,3.962-4.139C717.27,84.093,717.593,83.649,717.915,83.24z
			 M759.29,161.088c0.442-0.028,0.969,0.029,1.408-0.117c2.495-0.823,4.466-2.409,6.139-4.437c2.264-2.7,1.676-5.903,1.32-8.925
			c-0.319-2.732-1.996-5.083-3.552-7.344c-2.318-3.378-5.229-6.254-8.254-8.954c-1.582-1.44-3.433-2.616-5.195-3.849
			c-0.294-0.204-1.027-0.29-1.176-0.088c-0.438,0.472-0.675,1.118-0.997,1.677c1.382,0.616,2.645,1.143,3.849,1.788
			c3.171,1.792,5.726,4.318,8.192,6.992c2.228,2.434,4.078,5.079,5.432,8.134c2.114,4.814,0.086,9.542-3.233,12.303
			C762.021,159.296,760.64,160.148,759.29,161.088z M706.933,180.44c0,0.028-0.028,0.088-0.028,0.146
			c3.2,0.174,6.433,0.409,9.662,0.559c1.204,0.058,2.198,0.409,2.876,1.407c2.058,3.055,4.053,6.139,6.107,9.194
			c0.703,1.055,1.498,2.053,2.264,3.083c0.115-0.53,0.058-0.942-0.12-1.291c-1.789-3.527-3.552-7.078-5.489-10.544
			c-1.35-2.38-3.613-3.526-6.342-3.349C712.864,179.795,709.897,180.176,706.933,180.44z M834.758,164.731c0.148,0,0.294,0,0.438,0
			c0-0.473,0.12-0.973-0.028-1.412c-0.203-0.735-0.56-1.439-0.85-2.174c-0.588-1.437-1.059-2.938-1.733-4.317
			c-1.06-2.202-3.026-3.494-5.05-4.727c-3.229-1.967-6.699-2.82-10.747-2.174c0.646,0.235,1.084,0.414,1.494,0.53
			c3.966,1.117,7.667,2.761,11.044,5.136c2.26,1.619,4.05,3.527,4.638,6.372C834.141,162.91,834.492,163.816,834.758,164.731z
			 M724.432,168.87c-4.227,3.437-9.455,4.699-14.447,6.371C714.012,176.682,723.23,174.095,724.432,168.87z M851.82,221.05
			c-0.119-0.116-0.235-0.295-0.354-0.469c-5.581,3.76-11.128,7.518-17.561,9.808c1.205,0.058,2.38,0.058,3.469-0.294
			c3.846-1.292,7.161-3.466,10.452-5.754C849.237,223.401,850.467,222.167,851.82,221.05z M727.109,119.83
			c3.639-1.499,6.603-4.024,10.101-6.168C733.8,113.074,729.424,115.777,727.109,119.83z M816.73,158.943
			c-0.092,0.03-0.443,0.059-0.708,0.237c-1.263,0.818-1.817,3.672-0.911,4.902c0.149,0.177,0.559,0.265,0.823,0.207
			c1.528-0.382,2.525-1.379,2.849-2.906C819.048,160.086,818.341,158.857,816.73,158.943z M724.403,88.907
			c1.439,0.063,1.675-0.235,1.763-1.672c0.087-1.146-0.704-2.024-1.615-2.024c-1.056,0-2.086,1.055-2.144,2.198
			C722.378,88.262,723.23,88.907,724.403,88.907z M750.684,155.097c0.386-0.119,0.915-0.119,1.089-0.381
			c1.089-1.382,2.115-2.822,3.113-4.258c0.231-0.353,0.323-0.795,0.53-1.35c-0.356,0.116-0.473,0.116-0.53,0.174
			c-1.03,0.853-1.938,1.821-3.025,2.555C750.684,152.63,750.424,153.628,750.684,155.097z M723.848,99.715
			c-1.851-1.527-3.82-3.083-5.729-4.64C717.771,97.306,721.528,100.273,723.848,99.715z M825.51,236.792
			c0.116,0,0.261,0,0.377,0.059c1.03-1.47,2.061-2.939,3.055-4.405c-1.672,0.646-2.786,1.759-3.403,3.287
			C825.391,236.085,825.51,236.437,825.51,236.792z"/>
		<path fill="#010101" d="M932.219,177.501c0,4.525-1.233,8.429-4.288,11.69c-4.107,4.463-8.81,8.366-13.859,11.628
			c-7.518,4.785-15.035,9.426-22.61,14.037c-2.525,1.553-5.167,2.906-7.75,4.313c-2.881,1.527-5.522,0.588-6.813-2.347
			c-1.233-2.849-1.589-5.874-1.118-8.958c0.354-2.703,0.473-5.461,1.061-8.135c1.292-6.548,2.815-13.064,4.227-19.616
			c1.76-8.573,3.581-17.176,5.286-25.782c0.588-3.112,0.939-6.313,1.176-9.513c0.29-4.202,0.587-8.428,0.525-12.625
			c-0.058-3.468-0.646-6.929-2.876-9.781c-0.588-0.734-1.293-1.408-1.995-2.025c-0.704-0.617-0.944-1.32-0.944-2.264
			c0-0.878-0.174-1.789-0.348-2.67c-0.356-2.26-1.647-3.904-3.586-5.138c-0.645-0.413-1.584-0.736-1.465-1.821
			c0.116-1.146,0.82-2.086,1.879-2.438c2.111-0.704,4.404-0.762,6.459,0.207c0.587,0.264,1.232,1.171,1.291,1.849
			c0.174,1.88,0.058,3.817,0.115,5.726c0,1.175,0.059,2.376,0.179,3.551c0,0.207,0.178,0.442,0.41,0.588
			c0.355,0.235,0.704,0.5,1.059,0.646c2.699,0.882,3.875,3.026,4.935,5.374c1.644,3.493,1.057,6.991,0.704,10.543
			c-0.116,1.999-0.059,3.994-0.116,6.018c0,1.263-0.119,2.525-0.178,3.788c0,5.141-0.062,10.279,0,15.449
			c0.059,8.515,0.119,17.031,0.178,25.545c0.058,1.615,1.056,2.79,2.111,3.907c2.409,2.583,5.406,4.141,8.926,3.701
			c2.821-0.326,5.638-1.176,8.344-2.293c3.639-1.527,7.047-3.494,10.569-5.373c2.467-1.291,3.993-3.523,5.579-5.639
			C929.987,178.706,930.753,177.767,932.219,177.501z"/>
		<path fill="#010101" d="M765.926,261.811c2.381-0.297,4.611,0.233,6.813,1.057c4.082,1.526,8.134,3.17,12.274,4.521
			c1.589,0.529,3.406,0.529,5.137,0.529c2.909,0.059,5.878,0.116,8.751-0.236c2.352-0.231,4.673-0.939,6.93-1.644
			c4.26-1.175,8.49-2.525,12.688-3.936c5.58-1.822,11.188-3.64,16.649-5.696c2.583-0.997,4.905-2.641,7.314-3.991
			c0.936-0.471,1.82-0.943,2.876-1.531c-0.062,1.879-1.175,3.056-2.202,4.173c-3.435,3.464-7.017,6.872-10.571,10.395
			c-0.146-0.179-0.323-0.353-0.381-0.41c-6.666,5.224-13.156,10.511-20.793,14.27c-1.553,0.707-3.229,1.176-4.992,1.176
			c-1.173,0-2.318,0.119-3.461,0.119c-4.434,0.232-8.692-0.588-12.717-2.467c-2.935-1.412-5.96-2.703-8.692-4.347
			c-2.028-1.233-3.729-3.055-5.489-4.698c-1.677-1.528-3.32-3.113-5.493-3.938c-1.06-0.409-2.083-0.881-3.026-1.465
			c-0.675-0.355-1.233-1.06-1.821-1.53C765.781,262.044,765.868,261.928,765.926,261.811z"/>
		<path fill="#010101" d="M749.777,257.464c-1.589,3.288-3.171,6.343-4.492,9.455c-1.088,2.643-1.03,5.58-0.412,8.337
			c0.264,1.234,1.262,2.294,2.053,3.349c1.146,1.528,2.674,2.82,3.113,4.815c0.119,0.472,0.119,0.942,0.207,1.47
			c-2.878,0.058-5.287-0.704-6.931-2.878c-2.818-3.758-5.639-7.518-7.546-11.863c-0.559-1.291-1.113-2.468-1.557-3.816
			c-0.559-1.764,0.029-3.465,0.413-5.17c0.378-1.76,0.82-3.466,1.263-5.345c-3.556-1.644-6.99-3.171-10.515-4.756
			c-1.059,1.821-1.965,3.581-3.025,5.228c-1.705,2.819-3.522,5.46-6.109,7.518c-0.994,0.82-2.053,1.175-3.58,0.939
			c0.438-1.176,0.735-2.409,1.294-3.522c1.582-2.997,3.403-5.874,4.961-8.929c1.175-2.348,2.056-4.815,3.142-7.166
			c0.381-0.819,0.969-1.585,1.556-2.347c0.616-0.708,2.322-0.823,3.084-0.179c3.345,3.113,7.253,5.464,11.16,7.812
			c3.729,2.173,7.46,4.347,11.189,6.578C749.393,257.109,749.661,257.464,749.777,257.464z"/>
		<path fill="#010101" d="M837.962,274.32c0,0.994,0.028,1.938,0,2.874c-0.033,0.235-0.211,0.471-0.414,0.649
			c-3.2,2.642-6.371,5.344-9.632,7.985c-2.058,1.646-3.379,3.816-4.787,5.932c-1.994,3.056-4.051,6.105-6.138,9.161
			c-1.205,1.647-3.787,1.879-5.521,0.472c-3.76-3.055-7.427-6.11-11.187-9.165c-2.731-2.228-5.58-4.284-8.398-6.458
			c-0.675-0.472-1.466-0.939-1.967-1.644c-0.442-0.646-0.587-1.527-0.882-2.289c0.12-0.062,0.207-0.178,0.323-0.297
			c1.821,0.707,3.729,1.232,5.493,2.057c3.461,1.644,6.871,3.464,10.332,5.229c0.944,0.468,1.909,0.819,2.823,1.349
			c2.289,1.293,4.288,0.175,6.106-0.881c2.818-1.644,5.551-3.523,8.196-5.402c3.816-2.819,7.546-5.754,11.333-8.577
			C834.877,274.378,836.256,273.965,837.962,274.32z"/>
	</g>
</g>
<rect x="552.035" y="289.285" fill="none" width="50.333" height="14.465"/>
<text transform="matrix(1.25 0 0 1 92.418 214.8359)" fill="#010101" stroke="#000000" stroke-width="5" stroke-miterlimit="10" font-family="'PTSans-Caption'" font-size="183.0984" letter-spacing="28">GA$</text>
</svg>
