<?xml version="1.0" encoding="utf-8"?>
<!-- Generator: Adobe Illustrator 16.0.0, SVG Export Plug-In . SVG Version: 6.00 Build 0)  -->
<!DOCTYPE svg PUBLIC "-//W3C//DTD SVG 1.1//EN" "http://www.w3.org/Graphics/SVG/1.1/DTD/svg11.dtd">
<svg version="1.1" id="Layer_1" xmlns="http://www.w3.org/2000/svg" xmlns:xlink="http://www.w3.org/1999/xlink" x="0px" y="0px"
	 width="960px" height="320px" viewBox="0 0 960 320" enable-background="new 0 0 960 320" xml:space="preserve">
<image overflow="visible" opacity="0.6" width="4400" height="2362" xlink:href="travelTransparent.png"  transform="matrix(0.1945 0 0 0.1945 52.1079 -69.7002)">
</image>
<path fill="#3A3A3C" d="M179.944,283.966c-25.307,0-51.217-15.062-63.868-37.356c-6.629-11.146-10.244-23.197-10.244-35.852V106.82
	c0-25.908,15.063-50.312,39.769-63.567c12.353-6.627,26.512-9.941,42.178-9.941h0.603c15.063,0.904,31.935,8.135,44.587,18.68
	c3.917,3.314,6.629,6.025,8.436,7.833c2.412,2.711,3.918,6.325,3.918,9.339c0,5.122-3.014,10.243-8.135,13.559l-1.205,0.902
	l-10.847,3.013c-3.916,0-6.627-3.013-8.735-5.724c-0.604-0.904-1.506-1.809-1.809-2.109c-7.23-7.229-15.967-13.255-30.729-13.255
	c-15.967,0-30.127,7.833-37.356,20.786c-3.313,6.327-4.819,12.353-4.819,19.886v104.538c0,13.858,7.53,26.813,19.582,34.043
	c6.627,4.521,12.953,6.327,21.088,6.327c16.871,0,28.02-6.628,34.946-20.787c2.712-5.423,4.218-10.846,4.218-16.871v-50.613h-54.527
	v-16.568c0-9.34,7.833-16.57,18.076-16.57h58.746c5.422,0,13.256,5.122,13.256,12.051v74.112c0,13.257-8.736,40.068-32.536,56.036
	c-11.147,7.832-25.909,12.05-41.876,12.05h-2.715V283.966z"/>
<path fill="#3A3A3C" d="M318.298,280.352c-9.037,0-14.461-1.506-17.172-4.819c-1.507-2.109-1.809-4.22-1.507-6.628l0.903-3.014
	l13.257-43.684L361.681,51.99c3.014-6.931,9.34-13.257,17.774-13.257c9.942,0,15.968,7.23,18.077,13.558L440.01,204.13l5.423,18.077
	l11.448,45.49c0.904,2.41,0.302,5.121-0.903,7.229c-1.808,2.411-5.121,5.726-18.678,5.726c-0.904,0-2.411,0-2.713-0.303
	l-0.902,0.303c-4.219,0-9.642-1.809-12.955-9.34l-0.302-0.903l-11.146-44.587h-60.254l-12.354,44.587
	c-1.506,5.724-7.531,9.94-14.158,9.94h-0.604h-3.615V280.352z M359.271,192.982c15.967,0,33.439,0,42.177-0.301l-21.992-74.111
	L359.271,192.982z"/>
<path fill="#3A3A3C" d="M654.285,92.538c1.809,1.991,3.615,4.271,3.014,7.401c-0.301,3.416-3.314,5.41-10.846,10.533
	c-2.41,1.709-5.121,2.562-7.834,2.562c-7.229,0-12.652-5.409-18.979-11.672c-7.229-6.834-15.062-14.52-26.211-17.649v67.185
	c25.607,8.541,57.844,20.496,57.844,50.388c0,36.155-22.596,62.914-57.844,68.894v16.51h-12.352c-9.643,0-18.678-6.83-18.678-13.948
	v-2.277c-23.5-3.985-46.096-16.795-62.062-35.869c-0.904-1.425-1.506-2.847-1.206-4.555c1.508-5.979,16.27-11.388,16.871-11.388
	c1.506-0.854,3.314-1.139,5.121-1.139c5.424,0,9.34,3.985,10.846,5.693l0.303,0.285c8.133,8.255,18.678,14.232,30.127,16.795
	v-67.753c-27.416-9.396-52.119-22.774-52.119-53.521c0-31.6,20.484-55.797,52.119-62.629v-3.7c0-7.117,9.035-13.949,18.678-13.949
	h12.352v17.08c22.898,3.701,44.287,16.512,60.555,36.438L654.285,92.538z M562.4,85.421c-14.16,4.556-20.787,15.658-20.787,34.447
	c0,7.687,6.023,13.379,20.787,19.927V85.421z M593.43,183.066v56.08c15.668-5.125,24.705-17.935,25.006-35.584
	C618.436,194.453,609.098,188.76,593.43,183.066z"/>
<g>
	<path fill="#3A3A3C" d="M672.703,297.072c0-45.365,0-90.731,0-136.098c0.102-0.223,0.254-0.437,0.299-0.67
		c2.391-12.502,11.875-20.468,24.557-20.49c19.596-0.037,39.189-0.017,58.785-0.008c14.783,0.006,25.229,10.438,25.234,25.204
		c0.01,19.154,0.006,38.308,0.01,57.462c0,0.612,0,1.226,0,2.014c3.879,0,7.578-0.004,11.279,0.002
		c14.498,0.021,24.986,10.529,25.004,25.059c0.01,7.812-0.043,15.627,0.018,23.439c0.051,6.824,5.646,12.15,12.459,11.981
		c6.582-0.161,11.705-5.528,11.713-12.364c0.021-19.597,0.01-39.19,0.008-58.787c0-0.422-0.041-0.846-0.07-1.432
		c-2.191,0-4.256,0.025-6.32-0.004c-11.213-0.156-20.66-7.49-23.021-18.48c-0.898-4.184-0.537-8.631-0.871-12.948
		c-0.07-0.897-0.469-1.943-1.07-2.595c-2.264-2.451-4.652-4.787-7.033-7.131c-3.35-3.302-6.729-6.569-9.854-9.615
		c7.34-7.336,14.398-14.395,21.58-21.572c3.217,3.253,6.562,6.677,9.951,10.055c9.594,9.561,19.205,19.102,28.809,28.649
		c0,32.387,0,64.772,0,97.157c-0.111,0.285-0.277,0.56-0.33,0.854c-2.244,12.603-13.363,21.332-25.822,20.265
		c-12.668-1.086-22.191-11.496-22.23-24.34c-0.025-8,0.027-16.002-0.02-24c-0.033-6.127-4.402-11.353-10.479-11.924
		c-4.475-0.42-9.021-0.082-13.74-0.082c0,20.169,0,40.223,0,60.398C745.125,297.072,708.914,297.072,672.703,297.072z
		 M769.482,284.893c0-0.783,0-1.349,0-1.912c0-39.307,0.004-78.61,0-117.916c-0.002-8.181-4.998-13.16-13.199-13.162
		c-19.398-0.004-38.799-0.002-58.199,0c-8.342,0.002-13.283,4.935-13.283,13.264c-0.002,39.305-0.002,78.609,0.002,117.914
		c0,0.604,0.055,1.207,0.084,1.812C713.143,284.893,741.213,284.893,769.482,284.893z M810.676,161.382
		c4.088,4.013,8.158,7.942,12.127,11.972c0.613,0.625,1.041,1.701,1.07,2.584c0.117,3.646-0.014,7.299,0.078,10.945
		c0.043,1.68,0.107,3.448,0.65,5.006c2.828,8.115,9.152,9.194,17.459,8.094c0-4.832,0.062-9.676-0.051-14.515
		c-0.021-0.932-0.49-2.071-1.141-2.735c-5.369-5.484-10.848-10.865-16.26-16.31c-3.145-3.162-6.23-6.379-9.318-9.546
		C813.672,158.458,812.291,159.807,810.676,161.382z"/>
	<path fill="#3A3A3C" d="M696.975,212.257c0-16.106,0-32.082,0-48.159c20.092,0,40.098,0,60.262,0c0,15.979,0,32,0,48.159
		C737.238,212.257,717.186,212.257,696.975,212.257z M745.195,176.225c-12.125,0-24.107,0-36.057,0c0,8.084,0,16.037,0,23.975
		c12.084,0,24.021,0,36.057,0C745.195,192.195,745.195,184.288,745.195,176.225z"/>
</g>
<path class="slideDown" fill="#F24738" d="M726.928,22.892c2.379,0.547,4.857,0.832,7.119,1.688c9.666,3.657,15.486,10.673,17.6,20.785
	c1.031,4.937,0.016,9.672-1.383,14.368c-2.656,8.933-6.145,17.557-10.014,26.013c-4.812,10.52-9.867,20.93-14.82,31.386
	c-0.164,0.349-0.359,0.681-0.646,1.218c-0.785-1.553-1.508-2.951-2.205-4.36c-6.633-13.394-13.02-26.898-18.523-40.803
	c-2.377-6.008-4.674-12.052-5.953-18.41c-1.695-8.422,0.568-15.854,6.006-22.32c4.607-5.48,10.594-8.568,17.73-9.374
	c0.279-0.031,0.551-0.124,0.824-0.188C724.084,22.892,725.506,22.892,726.928,22.892z M724.801,43.368
	c-3.867,0.016-6.852,3.037-6.834,6.917c0.018,3.737,3.115,6.753,6.928,6.739c3.672-0.012,6.762-3.146,6.734-6.83
	C731.602,46.376,728.576,43.353,724.801,43.368z"/>
	<style type="text/css">
		.slideDown{
			animation-name: slideDown;
			-webkit-animation-name: slideDown;

			animation-duration: 1.3s;
			-webkit-animation-duration: 1.3s;
			animation-iteration-count: infinite;
			-webkit-animation-iteration-count: infinite;

			animation-timing-function: ease;
			-webkit-animation-timing-function: ease;

			visibility: visible !important;
		}
		@keyframes slideDown {
			0% {
				transform: translateY(-20%);
			}
			50%{
				transform: translateY(8%);
			}
			80%{
				transform: translateY(4%);
			}
			100% {
				transform: translateY(-20%);
			}
		}

		@-webkit-keyframes slideDown {
			0% {
				-webkit-transform: translateY(-100%);
			}
			50%{
				-webkit-transform: translateY(8%);
			}
			80%{
				-webkit-transform: translateY(4%);
			}
			100% {
				-webkit-transform: translateY(100%);
			}
		}
	</style>
<path fill="#3A3A3C" d="M677.025,132.081c2.268-18.173,4.535-36.347,6.812-54.58c3.076,0,6.057-0.008,9.039,0.016
	c0.223,0.002,0.58,0.183,0.643,0.36c0.736,2.099,1.43,4.212,2.162,6.415c-1.936,0-3.74,0-5.703,0
	c-1.809,13.642-3.609,27.24-5.424,40.914c26.832,0,53.576,0,80.473,0c-1.816-13.628-3.627-27.226-5.449-40.896
	c-1.908,0-3.748,0-5.713,0c0.736-2.222,1.434-4.337,2.162-6.438c0.059-0.167,0.359-0.354,0.553-0.354
	c3.014-0.022,6.029-0.017,9.137-0.017c2.289,18.239,4.568,36.408,6.848,54.579C740.719,132.081,708.871,132.081,677.025,132.081z"/>
</svg>
